<?xml version="1.0" standalone="no"?>
<!DOCTYPE svg PUBLIC "-//W3C//DTD SVG 20010904//EN"
 "http://www.w3.org/TR/2001/REC-SVG-20010904/DTD/svg10.dtd">
<svg version="1.0" xmlns="http://www.w3.org/2000/svg"
 width="1200.000000pt" height="1200.000000pt" viewBox="0 0 1200.000000 1200.000000"
 preserveAspectRatio="xMidYMid meet">
<metadata>
Created by potrace 1.11, written by Peter Selinger 2001-2013
</metadata>
<g transform="translate(0.000000,1200.000000) scale(0.100000,-0.100000)"
fill="#000000" stroke="none">
<path d="M0 6000 l0 -6000 6000 0 6000 0 0 6000 0 6000 -6000 0 -6000 0 0
-6000z m7331 2944 c222 -70 427 -133 454 -141 49 -15 56 -23 505 -559 250
-299 456 -548 458 -553 1 -4 -12 -15 -30 -23 -34 -15 -30 -16 10 -4 20 7 -990
-1215 -2375 -2871 l-353 -422 -57 67 c-217 254 -2685 3222 -2683 3228 1 4 -3
10 -9 13 -6 4 180 240 433 551 l444 545 468 147 469 147 931 0 930 1 405 -126z
m-3298 -5225 c51 -26 73 -91 47 -140 -13 -24 -61 -49 -95 -49 -34 0 -82 25
-95 49 -13 25 -13 77 0 101 23 42 97 62 143 39z m817 -414 c0 -332 1 -346 20
-365 22 -22 65 -26 116 -11 30 8 30 8 51 -50 24 -66 25 -65 -50 -85 -146 -39
-265 6 -301 113 -13 38 -16 98 -16 335 l0 288 -90 0 -90 0 0 60 0 60 180 0
180 0 0 -345z m-3090 277 c30 -12 68 -32 83 -45 l29 -23 -43 -51 -43 -51 -56
32 c-47 27 -65 31 -127 31 -62 0 -75 -3 -97 -24 -28 -26 -32 -50 -16 -82 13
-24 49 -42 158 -80 165 -58 224 -116 230 -229 5 -86 -10 -132 -60 -186 -70
-76 -211 -110 -353 -85 -77 14 -163 52 -197 88 l-22 23 45 47 c24 26 45 50 46
52 2 2 11 -3 20 -11 48 -42 107 -62 185 -63 86 0 124 19 141 69 20 61 -20 101
-143 141 -179 58 -250 128 -250 247 0 100 56 172 163 210 72 26 229 20 307
-10z m6550 -54 l0 -73 -185 -250 -184 -250 190 -3 c175 -2 190 -4 185 -20 -3
-9 -8 -43 -12 -75 l-6 -57 -291 2 -292 3 0 67 -1 66 189 254 188 253 -166 3
-165 2 0 75 0 75 275 0 275 0 0 -72z m-5789 -109 c48 -16 94 -63 121 -123 20
-45 23 -67 23 -181 0 -128 -1 -132 -33 -198 -39 -80 -91 -123 -158 -133 -58
-8 -104 1 -148 31 l-36 24 0 -138 0 -138 -61 -7 c-34 -3 -75 -6 -90 -6 l-29 0
0 430 0 430 79 0 79 0 7 -30 7 -30 36 29 c63 49 134 63 203 40z m765 -4 c67
-19 127 -73 161 -143 26 -52 28 -67 28 -167 0 -94 -3 -118 -24 -162 -98 -218
-437 -218 -531 -1 -49 111 -34 288 31 377 30 42 101 89 152 101 53 13 131 11
183 -5z m2413 -1 c113 -33 184 -144 185 -289 l1 -70 -197 -3 c-125 -1 -198 -6
-198 -13 0 -24 30 -77 54 -97 52 -41 126 -37 236 12 11 5 25 -7 49 -41 l33
-47 -26 -23 c-45 -39 -157 -67 -241 -60 -165 12 -260 99 -286 261 -20 120 26
259 106 323 74 60 183 78 284 47z m980 5 c22 -8 30 -16 27 -28 -3 -9 -10 -64
-17 -123 l-13 -108 -58 0 -58 0 0 55 c0 47 -2 54 -17 48 -40 -14 -82 -55 -107
-105 -22 -45 -26 -65 -26 -145 l0 -93 60 0 60 0 0 -60 0 -60 -190 0 -190 0 0
60 0 60 40 0 40 0 0 185 0 185 -40 0 -40 0 0 60 0 60 109 0 108 0 13 -60 c7
-33 17 -60 21 -60 5 0 9 4 9 8 0 20 77 96 114 113 47 21 108 24 155 8z m2237
-4 c67 -19 127 -73 161 -143 26 -52 28 -67 28 -167 0 -94 -3 -118 -24 -162
-98 -218 -437 -218 -531 -1 -49 111 -34 288 31 377 30 42 101 89 152 101 53
13 131 11 183 -5z m901 -11 c15 -11 36 -33 47 -48 20 -26 21 -43 24 -292 l3
-264 -90 0 -91 0 0 219 c0 121 -4 231 -10 245 -18 49 -73 44 -132 -12 l-28
-26 0 -213 0 -213 -90 0 -90 0 0 305 0 305 80 0 79 0 7 -35 6 -34 38 31 c21
18 53 38 71 45 49 18 143 11 176 -13z m712 10 c113 -33 184 -144 185 -289 l1
-70 -197 -3 c-125 -1 -198 -6 -198 -13 0 -24 30 -77 54 -97 52 -41 126 -37
236 12 11 5 25 -7 49 -41 l33 -47 -26 -23 c-45 -39 -157 -67 -241 -60 -165 12
-260 99 -286 261 -20 120 26 259 106 323 74 60 183 78 284 47z m-6439 -249 l0
-245 80 0 80 0 0 -60 0 -60 -255 0 -255 0 0 60 0 60 85 0 85 0 0 185 0 185
-83 0 -83 0 2 58 c1 31 2 58 3 60 0 1 78 2 171 2 l170 0 0 -245z"/>
<path d="M4275 8740 c11 -5 27 -9 35 -9 9 0 8 4 -5 9 -11 5 -27 9 -35 9 -9 0
-8 -4 5 -9z"/>
<path d="M4465 8680 c11 -5 27 -9 35 -9 9 0 8 4 -5 9 -11 5 -27 9 -35 9 -9 0
-8 -4 5 -9z"/>
<path d="M4655 8620 c11 -5 27 -9 35 -9 9 0 8 4 -5 9 -11 5 -27 9 -35 9 -9 0
-8 -4 5 -9z"/>
<path d="M4830 8565 c19 -7 42 -13 50 -13 8 0 -1 6 -20 13 -19 7 -42 13 -50
13 -8 0 1 -6 20 -13z"/>
<path d="M5009 8509 c30 -10 56 -17 58 -15 5 5 -86 36 -101 35 -6 0 13 -9 43
-20z"/>
<path d="M4766 7865 c-9 -26 -7 -32 5 -12 6 10 9 21 6 23 -2 3 -7 -2 -11 -11z"/>
<path d="M4702 7725 c-17 -37 -14 -45 4 -12 9 16 14 31 11 33 -2 2 -9 -7 -15
-21z"/>
<path d="M7320 7641 c0 -6 4 -13 10 -16 6 -3 7 1 4 9 -7 18 -14 21 -14 7z"/>
<path d="M8640 7640 c-8 -5 -10 -10 -5 -10 6 0 17 5 25 10 8 5 11 10 5 10 -5
0 -17 -5 -25 -10z"/>
<path d="M8590 7620 c-8 -5 -10 -10 -5 -10 6 0 17 5 25 10 8 5 11 10 5 10 -5
0 -17 -5 -25 -10z"/>
<path d="M7341 7605 c0 -5 8 -26 19 -45 11 -19 19 -30 19 -25 0 6 -8 26 -19
45 -11 19 -19 31 -19 25z"/>
<path d="M8540 7600 c-8 -5 -10 -10 -5 -10 6 0 17 5 25 10 8 5 11 10 5 10 -5
0 -17 -5 -25 -10z"/>
<path d="M4622 7555 c-30 -62 -27 -71 4 -12 14 27 24 51 22 53 -3 2 -14 -17
-26 -41z"/>
<path d="M8490 7580 c-8 -5 -10 -10 -5 -10 6 0 17 5 25 10 8 5 11 10 5 10 -5
0 -17 -5 -25 -10z"/>
<path d="M8440 7560 c-8 -5 -10 -10 -5 -10 6 0 17 5 25 10 8 5 11 10 5 10 -5
0 -17 -5 -25 -10z"/>
<path d="M8390 7540 c-8 -5 -10 -10 -5 -10 6 0 17 5 25 10 8 5 11 10 5 10 -5
0 -17 -5 -25 -10z"/>
<path d="M4552 7405 c-30 -62 -27 -71 4 -12 14 27 24 51 22 53 -3 2 -14 -17
-26 -41z"/>
<path d="M8110 7430 c-8 -5 -10 -10 -5 -10 6 0 17 5 25 10 8 5 11 10 5 10 -5
0 -17 -5 -25 -10z"/>
<path d="M8060 7410 c-8 -5 -10 -10 -5 -10 6 0 17 5 25 10 8 5 11 10 5 10 -5
0 -17 -5 -25 -10z"/>
<path d="M7441 7398 c-1 -4 22 -53 49 -109 28 -56 50 -96 49 -88 0 15 -98 209
-98 197z"/>
<path d="M8010 7390 c-8 -5 -10 -10 -5 -10 6 0 17 5 25 10 8 5 11 10 5 10 -5
0 -17 -5 -25 -10z"/>
<path d="M4482 7255 c-30 -62 -27 -71 4 -12 14 27 24 51 22 53 -3 2 -14 -17
-26 -41z"/>
<path d="M2349 3285 c-51 -28 -59 -53 -59 -194 0 -128 0 -130 27 -150 57 -46
115 -33 147 32 24 50 26 214 2 270 -22 53 -67 69 -117 42z"/>
<path d="M3133 3281 c-40 -25 -53 -69 -53 -176 0 -44 5 -97 11 -118 13 -49 60
-80 108 -73 68 10 94 61 94 191 0 130 -26 181 -94 191 -24 3 -44 -1 -66 -15z"/>
<path d="M5552 3297 c-28 -13 -62 -75 -62 -112 l0 -25 110 0 110 0 0 25 c0 38
-25 90 -51 109 -27 18 -73 20 -107 3z"/>
<path d="M8763 3281 c-40 -25 -53 -69 -53 -176 0 -44 5 -97 11 -118 13 -49 60
-80 108 -73 68 10 94 61 94 191 0 130 -26 181 -94 191 -24 3 -44 -1 -66 -15z"/>
<path d="M10382 3297 c-28 -13 -62 -75 -62 -112 l0 -25 110 0 110 0 0 25 c0
38 -25 90 -51 109 -27 18 -73 20 -107 3z"/>
</g>
</svg>
